<svg xmlns="http://www.w3.org/2000/svg" xmlns:xlink="http://www.w3.org/1999/xlink" width="500" zoomAndPan="magnify" viewBox="0 0 375 374.999991" height="500" preserveAspectRatio="xMidYMid meet" version="1.0"><defs><g/><clipPath id="32c6b7ffe2"><path d="M 82.464844 221.898438 L 192.617188 221.898438 L 192.617188 234.148438 L 82.464844 234.148438 Z M 82.464844 221.898438 " clip-rule="nonzero"/></clipPath><clipPath id="b4962a92f6"><path d="M 264.847656 127.996094 L 375 127.996094 L 375 140.246094 L 264.847656 140.246094 Z M 264.847656 127.996094 " clip-rule="nonzero"/></clipPath><clipPath id="1c07a4c09d"><path d="M 226.34375 162.625 L 369.390625 162.625 L 369.390625 305.671875 L 226.34375 305.671875 Z M 226.34375 162.625 " clip-rule="nonzero"/></clipPath><clipPath id="bd4f928af1"><path d="M 297.867188 162.625 C 258.367188 162.625 226.34375 194.648438 226.34375 234.148438 C 226.34375 273.648438 258.367188 305.671875 297.867188 305.671875 C 337.367188 305.671875 369.390625 273.648438 369.390625 234.148438 C 369.390625 194.648438 337.367188 162.625 297.867188 162.625 Z M 297.867188 162.625 " clip-rule="nonzero"/></clipPath></defs><g clip-path="url(#32c6b7ffe2)"><path fill="#93ff00" d="M 82.464844 221.898438 L 192.613281 221.898438 L 192.613281 234.148438 L 82.464844 234.148438 Z M 82.464844 221.898438 " fill-opacity="1" fill-rule="nonzero"/></g><g clip-path="url(#b4962a92f6)"><path fill="#93ff00" d="M 264.847656 127.996094 L 374.996094 127.996094 L 374.996094 140.246094 L 264.847656 140.246094 Z M 264.847656 127.996094 " fill-opacity="1" fill-rule="nonzero"/></g><g fill="#fffcf7" fill-opacity="1"><g transform="translate(4.0905, 147.144987)"><g><path d="M 3.3125 0 L 9.609375 0 L 9.609375 -9.515625 L 19.640625 -9.515625 L 19.640625 -15.0625 L 9.609375 -15.0625 L 9.609375 -21.96875 L 20.671875 -21.96875 L 20.671875 -27.65625 L 3.3125 -27.65625 Z M 3.3125 0 "/></g></g></g><g fill="#fffcf7" fill-opacity="1"><g transform="translate(34.680254, 147.144987)"><g><path d="M 16.4375 0.546875 C 25.09375 0.546875 31.21875 -5.375 31.21875 -13.828125 C 31.21875 -22.28125 25.09375 -28.21875 16.4375 -28.21875 C 7.78125 -28.21875 1.703125 -22.28125 1.703125 -13.828125 C 1.703125 -5.375 7.78125 0.546875 16.4375 0.546875 Z M 8.09375 -13.828125 C 8.09375 -18.8125 11.53125 -22.25 16.4375 -22.25 C 21.375 -22.25 24.78125 -18.8125 24.78125 -13.828125 C 24.78125 -8.84375 21.375 -5.40625 16.4375 -5.40625 C 11.53125 -5.40625 8.09375 -8.84375 8.09375 -13.828125 Z M 8.09375 -13.828125 "/></g></g></g><g fill="#fffcf7" fill-opacity="1"><g transform="translate(75.782761, 147.144987)"><g><path d="M 14.625 0.546875 C 21.8125 0.546875 26.203125 -3.953125 26.203125 -11.375 L 26.203125 -27.65625 L 19.921875 -27.65625 L 19.921875 -11.8125 C 19.921875 -7.59375 18.140625 -5.40625 14.625 -5.40625 C 11.109375 -5.40625 9.328125 -7.59375 9.328125 -11.8125 L 9.328125 -27.65625 L 3.046875 -27.65625 L 3.046875 -11.375 C 3.046875 -3.953125 7.421875 0.546875 14.625 0.546875 Z M 14.625 0.546875 "/></g></g></g><g fill="#fffcf7" fill-opacity="1"><g transform="translate(113.209755, 147.144987)"><g><path d="M 3.3125 0 L 9.5625 0 L 9.5625 -16.953125 L 21.765625 0 L 27.109375 0 L 27.109375 -27.65625 L 20.859375 -27.65625 L 20.859375 -10.828125 L 8.65625 -27.65625 L 3.3125 -27.65625 Z M 3.3125 0 "/></g></g></g><g fill="#fffcf7" fill-opacity="1"><g transform="translate(151.822392, 147.144987)"><g><path d="M 3.3125 0 L 14.265625 0 C 23 0 28.84375 -5.578125 28.84375 -13.828125 C 28.84375 -22.046875 23 -27.65625 14.265625 -27.65625 L 3.3125 -27.65625 Z M 9.609375 -5.765625 L 9.609375 -21.890625 L 14.0625 -21.890625 C 19.046875 -21.890625 22.40625 -18.6875 22.40625 -13.828125 C 22.40625 -8.96875 19.046875 -5.765625 14.140625 -5.765625 Z M 9.609375 -5.765625 "/></g></g></g><g fill="#fffcf7" fill-opacity="1"><g transform="translate(190.514071, 147.144987)"><g><path d="M 3.3125 0 L 21.9375 0 L 21.9375 -5.328125 L 9.5625 -5.328125 L 9.5625 -11.375 L 20.421875 -11.375 L 20.421875 -16.640625 L 9.5625 -16.640625 L 9.5625 -22.359375 L 21.5 -22.359375 L 21.5 -27.65625 L 3.3125 -27.65625 Z M 3.3125 0 "/></g></g></g><g fill="#fffcf7" fill-opacity="1"><g transform="translate(222.64516, 147.144987)"><g><path d="M 3.3125 0 L 9.609375 0 L 9.609375 -8.609375 L 13.75 -8.609375 L 18.6875 0 L 25.96875 0 L 20.234375 -9.609375 C 23.546875 -11.0625 25.484375 -14.0625 25.484375 -18.140625 C 25.484375 -24.03125 21.453125 -27.65625 15.140625 -27.65625 L 3.3125 -27.65625 Z M 9.515625 -13.90625 L 9.515625 -22.28125 L 14.3125 -22.28125 C 17.390625 -22.28125 19.125 -20.78125 19.125 -18.09375 C 19.125 -15.40625 17.390625 -13.90625 14.3125 -13.90625 Z M 9.515625 -13.90625 "/></g></g></g><g clip-path="url(#1c07a4c09d)"><g clip-path="url(#bd4f928af1)"><path fill="#2e2e2e" d="M 226.34375 162.625 L 369.390625 162.625 L 369.390625 305.671875 L 226.34375 305.671875 Z M 226.34375 162.625 " fill-opacity="1" fill-rule="nonzero"/></g></g><g fill="#ededed" fill-opacity="1"><g transform="translate(229.392979, 267.367588)"><g><path d="M 33.5625 -27.625 L 51.734375 -55.078125 L 40.515625 -55.078125 L 27.953125 -36.078125 L 15.484375 -55.078125 L 4.265625 -55.078125 L 22.34375 -27.625 L 4.1875 0 L 15.3125 0 L 27.953125 -19.078125 L 40.59375 0 L 51.734375 0 Z M 33.5625 -27.625 "/></g></g></g><g fill="#ededed" fill-opacity="1"><g transform="translate(268.563895, 267.367588)"><g><path d="M 14.8125 -55.078125 L 3.59375 -55.078125 L 26.53125 -18.421875 L 26.53125 0 L 35.90625 0 L 35.90625 -18.421875 L 59.09375 -55.078125 L 47.796875 -55.078125 L 31.21875 -28.375 Z M 14.8125 -55.078125 "/></g></g></g><g fill="#ededed" fill-opacity="1"><g transform="translate(314.514705, 267.367588)"><g><path d="M 30.046875 -45.625 L 6.28125 0 L 45.453125 0 L 45.453125 -9.375 L 21.765625 -9.375 L 45.53125 -55.078125 L 6.359375 -55.078125 L 6.359375 -45.625 Z M 30.046875 -45.625 "/></g></g></g><g fill="#fffcf7" fill-opacity="1"><g transform="translate(37.500002, 332.168073)"><g><path d="M 1.875 0 L 3.125 0 L 4.40625 -3.609375 L 5.671875 0 L 6.921875 0 L 8.71875 -5.59375 L 7.375 -5.59375 L 6.84375 -3.890625 L 6.25 -2.03125 L 5.59375 -3.890625 L 5 -5.59375 L 3.796875 -5.59375 L 3.1875 -3.890625 L 2.5625 -2.046875 L 1.96875 -3.890625 L 1.421875 -5.59375 L 0.078125 -5.59375 Z M 1.875 0 "/></g></g></g><g fill="#fffcf7" fill-opacity="1"><g transform="translate(46.534573, 332.168073)"><g><path d="M 4.125 0 L 5.390625 0 L 5.390625 -5.59375 L 4.125 -5.59375 L 4.125 -3.4375 L 1.9375 -3.4375 L 1.9375 -5.59375 L 0.671875 -5.59375 L 0.671875 0 L 1.9375 0 L 1.9375 -2.25 L 4.125 -2.25 Z M 4.125 0 "/></g></g></g><g fill="#fffcf7" fill-opacity="1"><g transform="translate(52.83721, 332.168073)"><g><path d="M 0.671875 0 L 4.4375 0 L 4.4375 -1.078125 L 1.9375 -1.078125 L 1.9375 -2.296875 L 4.125 -2.296875 L 4.125 -3.359375 L 1.9375 -3.359375 L 1.9375 -4.515625 L 4.34375 -4.515625 L 4.34375 -5.59375 L 0.671875 -5.59375 Z M 0.671875 0 "/></g></g></g><g fill="#fffcf7" fill-opacity="1"><g transform="translate(57.909669, 332.168073)"><g><path d="M 0.671875 0 L 1.9375 0 L 1.9375 -1.734375 L 2.78125 -1.734375 L 3.78125 0 L 5.25 0 L 4.09375 -1.9375 C 4.765625 -2.234375 5.15625 -2.84375 5.15625 -3.671875 C 5.15625 -4.859375 4.328125 -5.59375 3.0625 -5.59375 L 0.671875 -5.59375 Z M 1.921875 -2.8125 L 1.921875 -4.5 L 2.890625 -4.5 C 3.515625 -4.5 3.859375 -4.203125 3.859375 -3.65625 C 3.859375 -3.109375 3.515625 -2.8125 2.890625 -2.8125 Z M 1.921875 -2.8125 "/></g></g></g><g fill="#fffcf7" fill-opacity="1"><g transform="translate(63.764966, 332.168073)"><g><path d="M 0.671875 0 L 4.4375 0 L 4.4375 -1.078125 L 1.9375 -1.078125 L 1.9375 -2.296875 L 4.125 -2.296875 L 4.125 -3.359375 L 1.9375 -3.359375 L 1.9375 -4.515625 L 4.34375 -4.515625 L 4.34375 -5.59375 L 0.671875 -5.59375 Z M 0.671875 0 "/></g></g></g><g fill="#fffcf7" fill-opacity="1"><g transform="translate(68.837425, 332.168073)"><g/></g></g><g fill="#fffcf7" fill-opacity="1"><g transform="translate(70.946291, 332.168073)"><g><path d="M 0.671875 0 L 1.9375 0 L 1.9375 -1.921875 L 3.96875 -1.921875 L 3.96875 -3.046875 L 1.9375 -3.046875 L 1.9375 -4.4375 L 4.171875 -4.4375 L 4.171875 -5.59375 L 0.671875 -5.59375 Z M 0.671875 0 "/></g></g></g><g fill="#fffcf7" fill-opacity="1"><g transform="translate(75.707214, 332.168073)"><g><path d="M 3.328125 0.109375 C 5.0625 0.109375 6.3125 -1.078125 6.3125 -2.796875 C 6.3125 -4.5 5.0625 -5.703125 3.328125 -5.703125 C 1.578125 -5.703125 0.34375 -4.5 0.34375 -2.796875 C 0.34375 -1.078125 1.578125 0.109375 3.328125 0.109375 Z M 1.640625 -2.796875 C 1.640625 -3.796875 2.328125 -4.5 3.328125 -4.5 C 4.3125 -4.5 5 -3.796875 5 -2.796875 C 5 -1.78125 4.3125 -1.09375 3.328125 -1.09375 C 2.328125 -1.09375 1.640625 -1.78125 1.640625 -2.796875 Z M 1.640625 -2.796875 "/></g></g></g><g fill="#fffcf7" fill-opacity="1"><g transform="translate(82.592975, 332.168073)"><g><path d="M 2.953125 0.109375 C 4.40625 0.109375 5.296875 -0.796875 5.296875 -2.296875 L 5.296875 -5.59375 L 4.03125 -5.59375 L 4.03125 -2.390625 C 4.03125 -1.53125 3.671875 -1.09375 2.953125 -1.09375 C 2.25 -1.09375 1.890625 -1.53125 1.890625 -2.390625 L 1.890625 -5.59375 L 0.609375 -5.59375 L 0.609375 -2.296875 C 0.609375 -0.796875 1.5 0.109375 2.953125 0.109375 Z M 2.953125 0.109375 "/></g></g></g><g fill="#fffcf7" fill-opacity="1"><g transform="translate(88.735847, 332.168073)"><g><path d="M 0.671875 0 L 1.9375 0 L 1.9375 -3.421875 L 4.40625 0 L 5.484375 0 L 5.484375 -5.59375 L 4.21875 -5.59375 L 4.21875 -2.1875 L 1.75 -5.59375 L 0.671875 -5.59375 Z M 0.671875 0 "/></g></g></g><g fill="#fffcf7" fill-opacity="1"><g transform="translate(95.118362, 332.168073)"><g><path d="M 0.671875 0 L 2.875 0 C 4.640625 0 5.828125 -1.125 5.828125 -2.796875 C 5.828125 -4.453125 4.640625 -5.59375 2.875 -5.59375 L 0.671875 -5.59375 Z M 1.9375 -1.171875 L 1.9375 -4.421875 L 2.84375 -4.421875 C 3.84375 -4.421875 4.53125 -3.78125 4.53125 -2.796875 C 4.53125 -1.8125 3.84375 -1.171875 2.859375 -1.171875 Z M 1.9375 -1.171875 "/></g></g></g><g fill="#fffcf7" fill-opacity="1"><g transform="translate(101.516854, 332.168073)"><g><path d="M 0.671875 0 L 4.4375 0 L 4.4375 -1.078125 L 1.9375 -1.078125 L 1.9375 -2.296875 L 4.125 -2.296875 L 4.125 -3.359375 L 1.9375 -3.359375 L 1.9375 -4.515625 L 4.34375 -4.515625 L 4.34375 -5.59375 L 0.671875 -5.59375 Z M 0.671875 0 "/></g></g></g><g fill="#fffcf7" fill-opacity="1"><g transform="translate(106.589313, 332.168073)"><g><path d="M 0.671875 0 L 1.9375 0 L 1.9375 -1.734375 L 2.78125 -1.734375 L 3.78125 0 L 5.25 0 L 4.09375 -1.9375 C 4.765625 -2.234375 5.15625 -2.84375 5.15625 -3.671875 C 5.15625 -4.859375 4.328125 -5.59375 3.0625 -5.59375 L 0.671875 -5.59375 Z M 1.921875 -2.8125 L 1.921875 -4.5 L 2.890625 -4.5 C 3.515625 -4.5 3.859375 -4.203125 3.859375 -3.65625 C 3.859375 -3.109375 3.515625 -2.8125 2.890625 -2.8125 Z M 1.921875 -2.8125 "/></g></g></g><g fill="#fffcf7" fill-opacity="1"><g transform="translate(112.44461, 332.168073)"><g><path d="M 2.625 0.109375 C 3.9375 0.109375 4.765625 -0.515625 4.765625 -1.578125 C 4.765625 -2.453125 4.171875 -2.984375 2.78125 -3.3125 C 1.9375 -3.515625 1.640625 -3.734375 1.640625 -4.078125 C 1.640625 -4.4375 1.96875 -4.65625 2.5 -4.65625 C 3.078125 -4.65625 3.4375 -4.359375 3.4375 -3.859375 L 4.65625 -3.859375 C 4.65625 -4.984375 3.8125 -5.703125 2.484375 -5.703125 C 1.203125 -5.703125 0.40625 -5.0625 0.40625 -4.046875 C 0.40625 -3.140625 1.015625 -2.59375 2.328125 -2.3125 C 3.109375 -2.140625 3.46875 -1.921875 3.46875 -1.53125 C 3.46875 -1.15625 3.140625 -0.9375 2.609375 -0.9375 C 2 -0.9375 1.59375 -1.25 1.59375 -1.78125 L 0.34375 -1.78125 C 0.34375 -0.625 1.21875 0.109375 2.625 0.109375 Z M 2.625 0.109375 "/></g></g></g><g fill="#fffcf7" fill-opacity="1"><g transform="translate(37.500002, 340.156146)"><g><path d="M 0.671875 0 L 1.9375 0 L 1.9375 -1.5625 L 2.859375 -1.5625 C 4.203125 -1.5625 5.078125 -2.34375 5.078125 -3.5625 C 5.078125 -4.796875 4.203125 -5.59375 2.859375 -5.59375 L 0.671875 -5.59375 Z M 1.9375 -2.65625 L 1.9375 -4.484375 L 2.75 -4.484375 C 3.421875 -4.484375 3.78125 -4.140625 3.78125 -3.5625 C 3.78125 -2.984375 3.421875 -2.65625 2.75 -2.65625 Z M 1.9375 -2.65625 "/></g></g></g><g fill="#fffcf7" fill-opacity="1"><g transform="translate(43.043762, 340.156146)"><g><path d="M 0.671875 0 L 1.9375 0 L 1.9375 -1.734375 L 2.78125 -1.734375 L 3.78125 0 L 5.25 0 L 4.09375 -1.9375 C 4.765625 -2.234375 5.15625 -2.84375 5.15625 -3.671875 C 5.15625 -4.859375 4.328125 -5.59375 3.0625 -5.59375 L 0.671875 -5.59375 Z M 1.921875 -2.8125 L 1.921875 -4.5 L 2.890625 -4.5 C 3.515625 -4.5 3.859375 -4.203125 3.859375 -3.65625 C 3.859375 -3.109375 3.515625 -2.8125 2.890625 -2.8125 Z M 1.921875 -2.8125 "/></g></g></g><g fill="#fffcf7" fill-opacity="1"><g transform="translate(48.899059, 340.156146)"><g><path d="M 3.328125 0.109375 C 5.0625 0.109375 6.3125 -1.078125 6.3125 -2.796875 C 6.3125 -4.5 5.0625 -5.703125 3.328125 -5.703125 C 1.578125 -5.703125 0.34375 -4.5 0.34375 -2.796875 C 0.34375 -1.078125 1.578125 0.109375 3.328125 0.109375 Z M 1.640625 -2.796875 C 1.640625 -3.796875 2.328125 -4.5 3.328125 -4.5 C 4.3125 -4.5 5 -3.796875 5 -2.796875 C 5 -1.78125 4.3125 -1.09375 3.328125 -1.09375 C 2.328125 -1.09375 1.640625 -1.78125 1.640625 -2.796875 Z M 1.640625 -2.796875 "/></g></g></g><g fill="#fffcf7" fill-opacity="1"><g transform="translate(55.784821, 340.156146)"><g><path d="M 2.625 0.109375 C 3.9375 0.109375 4.765625 -0.515625 4.765625 -1.578125 C 4.765625 -2.453125 4.171875 -2.984375 2.78125 -3.3125 C 1.9375 -3.515625 1.640625 -3.734375 1.640625 -4.078125 C 1.640625 -4.4375 1.96875 -4.65625 2.5 -4.65625 C 3.078125 -4.65625 3.4375 -4.359375 3.4375 -3.859375 L 4.65625 -3.859375 C 4.65625 -4.984375 3.8125 -5.703125 2.484375 -5.703125 C 1.203125 -5.703125 0.40625 -5.0625 0.40625 -4.046875 C 0.40625 -3.140625 1.015625 -2.59375 2.328125 -2.3125 C 3.109375 -2.140625 3.46875 -1.921875 3.46875 -1.53125 C 3.46875 -1.15625 3.140625 -0.9375 2.609375 -0.9375 C 2 -0.9375 1.59375 -1.25 1.59375 -1.78125 L 0.34375 -1.78125 C 0.34375 -0.625 1.21875 0.109375 2.625 0.109375 Z M 2.625 0.109375 "/></g></g></g><g fill="#fffcf7" fill-opacity="1"><g transform="translate(61.136861, 340.156146)"><g><path d="M 0.671875 0 L 1.9375 0 L 1.9375 -1.5625 L 2.859375 -1.5625 C 4.203125 -1.5625 5.078125 -2.34375 5.078125 -3.5625 C 5.078125 -4.796875 4.203125 -5.59375 2.859375 -5.59375 L 0.671875 -5.59375 Z M 1.9375 -2.65625 L 1.9375 -4.484375 L 2.75 -4.484375 C 3.421875 -4.484375 3.78125 -4.140625 3.78125 -3.5625 C 3.78125 -2.984375 3.421875 -2.65625 2.75 -2.65625 Z M 1.9375 -2.65625 "/></g></g></g><g fill="#fffcf7" fill-opacity="1"><g transform="translate(66.680621, 340.156146)"><g><path d="M 0.671875 0 L 4.4375 0 L 4.4375 -1.078125 L 1.9375 -1.078125 L 1.9375 -2.296875 L 4.125 -2.296875 L 4.125 -3.359375 L 1.9375 -3.359375 L 1.9375 -4.515625 L 4.34375 -4.515625 L 4.34375 -5.59375 L 0.671875 -5.59375 Z M 0.671875 0 "/></g></g></g><g fill="#fffcf7" fill-opacity="1"><g transform="translate(71.75308, 340.156146)"><g><path d="M 0.671875 0 L 1.9375 0 L 1.9375 -1.734375 L 2.78125 -1.734375 L 3.78125 0 L 5.25 0 L 4.09375 -1.9375 C 4.765625 -2.234375 5.15625 -2.84375 5.15625 -3.671875 C 5.15625 -4.859375 4.328125 -5.59375 3.0625 -5.59375 L 0.671875 -5.59375 Z M 1.921875 -2.8125 L 1.921875 -4.5 L 2.890625 -4.5 C 3.515625 -4.5 3.859375 -4.203125 3.859375 -3.65625 C 3.859375 -3.109375 3.515625 -2.8125 2.890625 -2.8125 Z M 1.921875 -2.8125 "/></g></g></g><g fill="#fffcf7" fill-opacity="1"><g transform="translate(317.908248, 40.081695)"><g><path d="M 2.59375 0.109375 C 3.609375 0.109375 4.4375 -0.421875 4.796875 -1.296875 L 3.5625 -1.296875 C 3.375 -1.015625 3.015625 -0.859375 2.609375 -0.859375 C 2.0625 -0.859375 1.625 -1.171875 1.515625 -1.75 L 4.875 -1.75 C 4.953125 -3.28125 4.046875 -4.296875 2.609375 -4.296875 C 1.25 -4.296875 0.3125 -3.40625 0.3125 -2.09375 C 0.3125 -0.796875 1.234375 0.109375 2.59375 0.109375 Z M 1.53125 -2.515625 C 1.65625 -3.03125 2.078125 -3.34375 2.609375 -3.34375 C 3.171875 -3.34375 3.5625 -3.03125 3.703125 -2.515625 Z M 1.53125 -2.515625 "/></g></g></g><g fill="#fffcf7" fill-opacity="1"><g transform="translate(323.324199, 40.081695)"><g><path d="M 2.21875 0.109375 C 3.359375 0.109375 4.046875 -0.390625 4.046875 -1.1875 C 4.046875 -1.875 3.53125 -2.3125 2.484375 -2.515625 C 1.765625 -2.65625 1.546875 -2.78125 1.546875 -3.03125 C 1.546875 -3.28125 1.765625 -3.421875 2.125 -3.421875 C 2.53125 -3.421875 2.78125 -3.234375 2.8125 -2.921875 L 3.96875 -2.921875 C 3.90625 -3.8125 3.25 -4.296875 2.140625 -4.296875 C 1.015625 -4.296875 0.375 -3.84375 0.375 -3.03125 C 0.375 -2.34375 0.859375 -1.921875 1.921875 -1.734375 C 2.578125 -1.625 2.84375 -1.453125 2.84375 -1.1875 C 2.84375 -0.9375 2.625 -0.796875 2.234375 -0.796875 C 1.78125 -0.796875 1.515625 -1 1.515625 -1.34375 L 0.3125 -1.34375 C 0.3125 -0.46875 1.0625 0.109375 2.21875 0.109375 Z M 2.21875 0.109375 "/></g></g></g><g fill="#fffcf7" fill-opacity="1"><g transform="translate(327.925356, 40.081695)"><g><path d="M 2.625 0 L 3.390625 0 L 3.390625 -1.046875 L 2.890625 -1.046875 C 2.40625 -1.046875 2.1875 -1.28125 2.1875 -1.765625 L 2.1875 -3.203125 L 3.34375 -3.203125 L 3.34375 -4.1875 L 2.1875 -4.1875 L 2.1875 -5.28125 L 1.25 -5.28125 L 1.171875 -4.734375 C 1.109375 -4.296875 0.984375 -4.1875 0.53125 -4.1875 L 0.15625 -4.1875 L 0.15625 -3.203125 L 0.96875 -3.203125 L 0.96875 -1.59375 C 0.96875 -0.5625 1.5625 0 2.625 0 Z M 2.625 0 "/></g></g></g><g fill="#fffcf7" fill-opacity="1"><g transform="translate(331.887463, 40.081695)"><g><path d="M 2.4375 0.109375 C 3.046875 0.109375 3.5625 -0.109375 3.9375 -0.484375 L 4.09375 0 L 4.984375 0 L 4.984375 -5.90625 L 3.78125 -5.90625 L 3.78125 -3.859375 C 3.421875 -4.140625 2.96875 -4.296875 2.4375 -4.296875 C 1.203125 -4.296875 0.3125 -3.390625 0.3125 -2.09375 C 0.3125 -0.796875 1.203125 0.109375 2.4375 0.109375 Z M 1.515625 -2.09375 C 1.515625 -2.78125 1.984375 -3.265625 2.671875 -3.265625 C 3.34375 -3.265625 3.8125 -2.78125 3.8125 -2.09375 C 3.8125 -1.40625 3.34375 -0.9375 2.671875 -0.9375 C 1.984375 -0.9375 1.515625 -1.40625 1.515625 -2.09375 Z M 1.515625 -2.09375 "/></g></g></g><g fill="#fffcf7" fill-opacity="1"><g transform="translate(315.755213, 48.069769)"><g><path d="M 0.40625 0 L 4.59375 0 L 4.59375 -1.109375 L 2.40625 -1.109375 L 3.46875 -2.03125 C 4.21875 -2.65625 4.5 -3.28125 4.5 -3.90625 C 4.5 -4.984375 3.671875 -5.703125 2.484375 -5.703125 C 1.25 -5.703125 0.484375 -4.953125 0.453125 -3.71875 L 1.609375 -3.71875 C 1.640625 -4.28125 1.953125 -4.609375 2.453125 -4.609375 C 2.953125 -4.609375 3.28125 -4.296875 3.28125 -3.84375 C 3.28125 -3.5 3.09375 -3.203125 2.71875 -2.875 L 0.40625 -0.890625 Z M 0.40625 0 "/></g></g></g><g fill="#fffcf7" fill-opacity="1"><g transform="translate(321.123231, 48.069769)"><g><path d="M 2.796875 0.109375 C 4.296875 0.109375 5.203125 -0.984375 5.203125 -2.796875 C 5.203125 -4.609375 4.296875 -5.703125 2.796875 -5.703125 C 1.296875 -5.703125 0.40625 -4.609375 0.40625 -2.796875 C 0.40625 -0.984375 1.296875 0.109375 2.796875 0.109375 Z M 1.625 -2.796875 C 1.625 -3.90625 2.046875 -4.5625 2.796875 -4.5625 C 3.546875 -4.5625 3.96875 -3.90625 3.96875 -2.796875 C 3.96875 -1.6875 3.546875 -1.015625 2.796875 -1.015625 C 2.046875 -1.015625 1.625 -1.6875 1.625 -2.796875 Z M 1.625 -2.796875 "/></g></g></g><g fill="#fffcf7" fill-opacity="1"><g transform="translate(326.954566, 48.069769)"><g><path d="M 0.40625 0 L 4.59375 0 L 4.59375 -1.109375 L 2.40625 -1.109375 L 3.46875 -2.03125 C 4.21875 -2.65625 4.5 -3.28125 4.5 -3.90625 C 4.5 -4.984375 3.671875 -5.703125 2.484375 -5.703125 C 1.25 -5.703125 0.484375 -4.953125 0.453125 -3.71875 L 1.609375 -3.71875 C 1.640625 -4.28125 1.953125 -4.609375 2.453125 -4.609375 C 2.953125 -4.609375 3.28125 -4.296875 3.28125 -3.84375 C 3.28125 -3.5 3.09375 -3.203125 2.71875 -2.875 L 0.40625 -0.890625 Z M 0.40625 0 "/></g></g></g><g fill="#fffcf7" fill-opacity="1"><g transform="translate(332.322584, 48.069769)"><g><path d="M 0.21875 -1.015625 L 3.015625 -1.015625 L 3.015625 0 L 4.25 0 L 4.25 -1.015625 L 4.953125 -1.015625 L 4.953125 -2.125 L 4.25 -2.125 L 4.25 -3.65625 L 3.265625 -3.65625 L 3.078125 -2.09375 L 1.6875 -2.09375 L 3.40625 -5.59375 L 2.015625 -5.59375 L 0.21875 -1.90625 Z M 0.21875 -1.015625 "/></g></g></g></svg>