<svg xmlns="http://www.w3.org/2000/svg" xmlns:xlink="http://www.w3.org/1999/xlink" width="500" zoomAndPan="magnify" viewBox="0 0 375 374.999991" height="500" preserveAspectRatio="xMidYMid meet" version="1.0"><defs><g/><clipPath id="a4bcb7fc43"><path d="M 98.792969 210.296875 L 191.683594 210.296875 L 191.683594 220.625 L 98.792969 220.625 Z M 98.792969 210.296875 " clip-rule="nonzero"/></clipPath><clipPath id="f2c6563474"><path d="M 242.636719 152.039062 L 335.527344 152.039062 L 335.527344 162.367188 L 242.636719 162.367188 Z M 242.636719 152.039062 " clip-rule="nonzero"/></clipPath><clipPath id="a782c32db6"><path d="M 217.128906 173.066406 L 327.632812 173.066406 L 327.632812 283.570312 L 217.128906 283.570312 Z M 217.128906 173.066406 " clip-rule="nonzero"/></clipPath><clipPath id="d87cc7f0fb"><path d="M 272.378906 173.066406 C 241.863281 173.066406 217.128906 197.800781 217.128906 228.316406 C 217.128906 258.832031 241.863281 283.570312 272.378906 283.570312 C 302.894531 283.570312 327.632812 258.832031 327.632812 228.316406 C 327.632812 197.800781 302.894531 173.066406 272.378906 173.066406 Z M 272.378906 173.066406 " clip-rule="nonzero"/></clipPath></defs><g clip-path="url(#a4bcb7fc43)"><path fill="#93ff00" d="M 98.792969 210.296875 L 191.679688 210.296875 L 191.679688 220.625 L 98.792969 220.625 Z M 98.792969 210.296875 " fill-opacity="1" fill-rule="nonzero"/></g><g clip-path="url(#f2c6563474)"><path fill="#93ff00" d="M 242.636719 152.039062 L 335.523438 152.039062 L 335.523438 162.367188 L 242.636719 162.367188 Z M 242.636719 152.039062 " fill-opacity="1" fill-rule="nonzero"/></g><g fill="#000000" fill-opacity="1"><g transform="translate(33.497057, 168.077963)"><g><path d="M 2.765625 0 L 8.015625 0 L 8.015625 -7.953125 L 16.40625 -7.953125 L 16.40625 -12.578125 L 8.015625 -12.578125 L 8.015625 -18.34375 L 17.265625 -18.34375 L 17.265625 -23.09375 L 2.765625 -23.09375 Z M 2.765625 0 "/></g></g></g><g fill="#000000" fill-opacity="1"><g transform="translate(59.039021, 168.077963)"><g><path d="M 13.734375 0.46875 C 20.953125 0.46875 26.0625 -4.484375 26.0625 -11.546875 C 26.0625 -18.609375 20.953125 -23.5625 13.734375 -23.5625 C 6.5 -23.5625 1.421875 -18.609375 1.421875 -11.546875 C 1.421875 -4.484375 6.5 0.46875 13.734375 0.46875 Z M 6.765625 -11.546875 C 6.765625 -15.703125 9.640625 -18.578125 13.734375 -18.578125 C 17.859375 -18.578125 20.6875 -15.703125 20.6875 -11.546875 C 20.6875 -7.390625 17.859375 -4.515625 13.734375 -4.515625 C 9.640625 -4.515625 6.765625 -7.390625 6.765625 -11.546875 Z M 6.765625 -11.546875 "/></g></g></g><g fill="#000000" fill-opacity="1"><g transform="translate(93.358968, 168.077963)"><g><path d="M 12.203125 0.46875 C 18.21875 0.46875 21.875 -3.296875 21.875 -9.5 L 21.875 -23.09375 L 16.625 -23.09375 L 16.625 -9.859375 C 16.625 -6.34375 15.140625 -4.515625 12.203125 -4.515625 C 9.265625 -4.515625 7.78125 -6.34375 7.78125 -9.859375 L 7.78125 -23.09375 L 2.546875 -23.09375 L 2.546875 -9.5 C 2.546875 -3.296875 6.203125 0.46875 12.203125 0.46875 Z M 12.203125 0.46875 "/></g></g></g><g fill="#000000" fill-opacity="1"><g transform="translate(124.609919, 168.077963)"><g><path d="M 2.765625 0 L 7.984375 0 L 7.984375 -14.15625 L 18.1875 0 L 22.640625 0 L 22.640625 -23.09375 L 17.421875 -23.09375 L 17.421875 -9.046875 L 7.234375 -23.09375 L 2.765625 -23.09375 Z M 2.765625 0 "/></g></g></g><g fill="#000000" fill-opacity="1"><g transform="translate(156.850865, 168.077963)"><g><path d="M 2.765625 0 L 11.90625 0 C 19.203125 0 24.09375 -4.65625 24.09375 -11.546875 C 24.09375 -18.40625 19.203125 -23.09375 11.90625 -23.09375 L 2.765625 -23.09375 Z M 8.015625 -4.8125 L 8.015625 -18.28125 L 11.75 -18.28125 C 15.90625 -18.28125 18.71875 -15.609375 18.71875 -11.546875 C 18.71875 -7.484375 15.90625 -4.8125 11.8125 -4.8125 Z M 8.015625 -4.8125 "/></g></g></g><g fill="#000000" fill-opacity="1"><g transform="translate(189.157809, 168.077963)"><g><path d="M 2.765625 0 L 18.3125 0 L 18.3125 -4.453125 L 7.984375 -4.453125 L 7.984375 -9.5 L 17.0625 -9.5 L 17.0625 -13.890625 L 7.984375 -13.890625 L 7.984375 -18.671875 L 17.953125 -18.671875 L 17.953125 -23.09375 L 2.765625 -23.09375 Z M 2.765625 0 "/></g></g></g><g fill="#000000" fill-opacity="1"><g transform="translate(215.986763, 168.077963)"><g><path d="M 2.765625 0 L 8.015625 0 L 8.015625 -7.1875 L 11.484375 -7.1875 L 15.609375 0 L 21.6875 0 L 16.890625 -8.015625 C 19.671875 -9.234375 21.28125 -11.75 21.28125 -15.140625 C 21.28125 -20.0625 17.921875 -23.09375 12.640625 -23.09375 L 2.765625 -23.09375 Z M 7.953125 -11.609375 L 7.953125 -18.609375 L 11.953125 -18.609375 C 14.515625 -18.609375 15.96875 -17.359375 15.96875 -15.109375 C 15.96875 -12.875 14.515625 -11.609375 11.953125 -11.609375 Z M 7.953125 -11.609375 "/></g></g></g><g clip-path="url(#a782c32db6)"><g clip-path="url(#d87cc7f0fb)"><path fill="#2e2e2e" d="M 217.128906 173.066406 L 327.632812 173.066406 L 327.632812 283.570312 L 217.128906 283.570312 Z M 217.128906 173.066406 " fill-opacity="1" fill-rule="nonzero"/></g></g><g fill="#ededed" fill-opacity="1"><g transform="translate(219.482322, 253.979198)"><g><path d="M 25.9375 -21.34375 L 39.96875 -42.546875 L 31.296875 -42.546875 L 21.59375 -27.875 L 11.96875 -42.546875 L 3.296875 -42.546875 L 17.265625 -21.34375 L 3.234375 0 L 11.828125 0 L 21.59375 -14.75 L 31.359375 0 L 39.96875 0 Z M 25.9375 -21.34375 "/></g></g></g><g fill="#ededed" fill-opacity="1"><g transform="translate(249.742516, 253.979198)"><g><path d="M 11.453125 -42.546875 L 2.78125 -42.546875 L 20.5 -14.234375 L 20.5 0 L 27.75 0 L 27.75 -14.234375 L 45.65625 -42.546875 L 36.921875 -42.546875 L 24.125 -21.921875 Z M 11.453125 -42.546875 "/></g></g></g><g fill="#ededed" fill-opacity="1"><g transform="translate(285.240293, 253.979198)"><g><path d="M 23.21875 -35.25 L 4.84375 0 L 35.109375 0 L 35.109375 -7.25 L 16.8125 -7.25 L 35.1875 -42.546875 L 4.921875 -42.546875 L 4.921875 -35.25 Z M 23.21875 -35.25 "/></g></g></g><g fill="#2e2e2e" fill-opacity="1"><g transform="translate(37.500002, 332.168073)"><g><path d="M 1.875 0 L 3.125 0 L 4.40625 -3.609375 L 5.671875 0 L 6.921875 0 L 8.71875 -5.59375 L 7.375 -5.59375 L 6.84375 -3.890625 L 6.25 -2.03125 L 5.59375 -3.890625 L 5 -5.59375 L 3.796875 -5.59375 L 3.1875 -3.890625 L 2.5625 -2.046875 L 1.96875 -3.890625 L 1.421875 -5.59375 L 0.078125 -5.59375 Z M 1.875 0 "/></g></g></g><g fill="#2e2e2e" fill-opacity="1"><g transform="translate(46.534573, 332.168073)"><g><path d="M 4.125 0 L 5.390625 0 L 5.390625 -5.59375 L 4.125 -5.59375 L 4.125 -3.4375 L 1.9375 -3.4375 L 1.9375 -5.59375 L 0.671875 -5.59375 L 0.671875 0 L 1.9375 0 L 1.9375 -2.25 L 4.125 -2.25 Z M 4.125 0 "/></g></g></g><g fill="#2e2e2e" fill-opacity="1"><g transform="translate(52.83721, 332.168073)"><g><path d="M 0.671875 0 L 4.4375 0 L 4.4375 -1.078125 L 1.9375 -1.078125 L 1.9375 -2.296875 L 4.125 -2.296875 L 4.125 -3.359375 L 1.9375 -3.359375 L 1.9375 -4.515625 L 4.34375 -4.515625 L 4.34375 -5.59375 L 0.671875 -5.59375 Z M 0.671875 0 "/></g></g></g><g fill="#2e2e2e" fill-opacity="1"><g transform="translate(57.909669, 332.168073)"><g><path d="M 0.671875 0 L 1.9375 0 L 1.9375 -1.734375 L 2.78125 -1.734375 L 3.78125 0 L 5.25 0 L 4.09375 -1.9375 C 4.765625 -2.234375 5.15625 -2.84375 5.15625 -3.671875 C 5.15625 -4.859375 4.328125 -5.59375 3.0625 -5.59375 L 0.671875 -5.59375 Z M 1.921875 -2.8125 L 1.921875 -4.5 L 2.890625 -4.5 C 3.515625 -4.5 3.859375 -4.203125 3.859375 -3.65625 C 3.859375 -3.109375 3.515625 -2.8125 2.890625 -2.8125 Z M 1.921875 -2.8125 "/></g></g></g><g fill="#2e2e2e" fill-opacity="1"><g transform="translate(63.764966, 332.168073)"><g><path d="M 0.671875 0 L 4.4375 0 L 4.4375 -1.078125 L 1.9375 -1.078125 L 1.9375 -2.296875 L 4.125 -2.296875 L 4.125 -3.359375 L 1.9375 -3.359375 L 1.9375 -4.515625 L 4.34375 -4.515625 L 4.34375 -5.59375 L 0.671875 -5.59375 Z M 0.671875 0 "/></g></g></g><g fill="#2e2e2e" fill-opacity="1"><g transform="translate(68.837425, 332.168073)"><g/></g></g><g fill="#2e2e2e" fill-opacity="1"><g transform="translate(70.946291, 332.168073)"><g><path d="M 0.671875 0 L 1.9375 0 L 1.9375 -1.921875 L 3.96875 -1.921875 L 3.96875 -3.046875 L 1.9375 -3.046875 L 1.9375 -4.4375 L 4.171875 -4.4375 L 4.171875 -5.59375 L 0.671875 -5.59375 Z M 0.671875 0 "/></g></g></g><g fill="#2e2e2e" fill-opacity="1"><g transform="translate(75.707214, 332.168073)"><g><path d="M 3.328125 0.109375 C 5.0625 0.109375 6.3125 -1.078125 6.3125 -2.796875 C 6.3125 -4.5 5.0625 -5.703125 3.328125 -5.703125 C 1.578125 -5.703125 0.34375 -4.5 0.34375 -2.796875 C 0.34375 -1.078125 1.578125 0.109375 3.328125 0.109375 Z M 1.640625 -2.796875 C 1.640625 -3.796875 2.328125 -4.5 3.328125 -4.5 C 4.3125 -4.5 5 -3.796875 5 -2.796875 C 5 -1.78125 4.3125 -1.09375 3.328125 -1.09375 C 2.328125 -1.09375 1.640625 -1.78125 1.640625 -2.796875 Z M 1.640625 -2.796875 "/></g></g></g><g fill="#2e2e2e" fill-opacity="1"><g transform="translate(82.592975, 332.168073)"><g><path d="M 2.953125 0.109375 C 4.40625 0.109375 5.296875 -0.796875 5.296875 -2.296875 L 5.296875 -5.59375 L 4.03125 -5.59375 L 4.03125 -2.390625 C 4.03125 -1.53125 3.671875 -1.09375 2.953125 -1.09375 C 2.25 -1.09375 1.890625 -1.53125 1.890625 -2.390625 L 1.890625 -5.59375 L 0.609375 -5.59375 L 0.609375 -2.296875 C 0.609375 -0.796875 1.5 0.109375 2.953125 0.109375 Z M 2.953125 0.109375 "/></g></g></g><g fill="#2e2e2e" fill-opacity="1"><g transform="translate(88.735847, 332.168073)"><g><path d="M 0.671875 0 L 1.9375 0 L 1.9375 -3.421875 L 4.40625 0 L 5.484375 0 L 5.484375 -5.59375 L 4.21875 -5.59375 L 4.21875 -2.1875 L 1.75 -5.59375 L 0.671875 -5.59375 Z M 0.671875 0 "/></g></g></g><g fill="#2e2e2e" fill-opacity="1"><g transform="translate(95.118362, 332.168073)"><g><path d="M 0.671875 0 L 2.875 0 C 4.640625 0 5.828125 -1.125 5.828125 -2.796875 C 5.828125 -4.453125 4.640625 -5.59375 2.875 -5.59375 L 0.671875 -5.59375 Z M 1.9375 -1.171875 L 1.9375 -4.421875 L 2.84375 -4.421875 C 3.84375 -4.421875 4.53125 -3.78125 4.53125 -2.796875 C 4.53125 -1.8125 3.84375 -1.171875 2.859375 -1.171875 Z M 1.9375 -1.171875 "/></g></g></g><g fill="#2e2e2e" fill-opacity="1"><g transform="translate(101.516854, 332.168073)"><g><path d="M 0.671875 0 L 4.4375 0 L 4.4375 -1.078125 L 1.9375 -1.078125 L 1.9375 -2.296875 L 4.125 -2.296875 L 4.125 -3.359375 L 1.9375 -3.359375 L 1.9375 -4.515625 L 4.34375 -4.515625 L 4.34375 -5.59375 L 0.671875 -5.59375 Z M 0.671875 0 "/></g></g></g><g fill="#2e2e2e" fill-opacity="1"><g transform="translate(106.589313, 332.168073)"><g><path d="M 0.671875 0 L 1.9375 0 L 1.9375 -1.734375 L 2.78125 -1.734375 L 3.78125 0 L 5.25 0 L 4.09375 -1.9375 C 4.765625 -2.234375 5.15625 -2.84375 5.15625 -3.671875 C 5.15625 -4.859375 4.328125 -5.59375 3.0625 -5.59375 L 0.671875 -5.59375 Z M 1.921875 -2.8125 L 1.921875 -4.5 L 2.890625 -4.5 C 3.515625 -4.5 3.859375 -4.203125 3.859375 -3.65625 C 3.859375 -3.109375 3.515625 -2.8125 2.890625 -2.8125 Z M 1.921875 -2.8125 "/></g></g></g><g fill="#2e2e2e" fill-opacity="1"><g transform="translate(112.44461, 332.168073)"><g><path d="M 2.625 0.109375 C 3.9375 0.109375 4.765625 -0.515625 4.765625 -1.578125 C 4.765625 -2.453125 4.171875 -2.984375 2.78125 -3.3125 C 1.9375 -3.515625 1.640625 -3.734375 1.640625 -4.078125 C 1.640625 -4.4375 1.96875 -4.65625 2.5 -4.65625 C 3.078125 -4.65625 3.4375 -4.359375 3.4375 -3.859375 L 4.65625 -3.859375 C 4.65625 -4.984375 3.8125 -5.703125 2.484375 -5.703125 C 1.203125 -5.703125 0.40625 -5.0625 0.40625 -4.046875 C 0.40625 -3.140625 1.015625 -2.59375 2.328125 -2.3125 C 3.109375 -2.140625 3.46875 -1.921875 3.46875 -1.53125 C 3.46875 -1.15625 3.140625 -0.9375 2.609375 -0.9375 C 2 -0.9375 1.59375 -1.25 1.59375 -1.78125 L 0.34375 -1.78125 C 0.34375 -0.625 1.21875 0.109375 2.625 0.109375 Z M 2.625 0.109375 "/></g></g></g><g fill="#2e2e2e" fill-opacity="1"><g transform="translate(37.500002, 340.156146)"><g><path d="M 0.671875 0 L 1.9375 0 L 1.9375 -1.5625 L 2.859375 -1.5625 C 4.203125 -1.5625 5.078125 -2.34375 5.078125 -3.5625 C 5.078125 -4.796875 4.203125 -5.59375 2.859375 -5.59375 L 0.671875 -5.59375 Z M 1.9375 -2.65625 L 1.9375 -4.484375 L 2.75 -4.484375 C 3.421875 -4.484375 3.78125 -4.140625 3.78125 -3.5625 C 3.78125 -2.984375 3.421875 -2.65625 2.75 -2.65625 Z M 1.9375 -2.65625 "/></g></g></g><g fill="#2e2e2e" fill-opacity="1"><g transform="translate(43.043762, 340.156146)"><g><path d="M 0.671875 0 L 1.9375 0 L 1.9375 -1.734375 L 2.78125 -1.734375 L 3.78125 0 L 5.25 0 L 4.09375 -1.9375 C 4.765625 -2.234375 5.15625 -2.84375 5.15625 -3.671875 C 5.15625 -4.859375 4.328125 -5.59375 3.0625 -5.59375 L 0.671875 -5.59375 Z M 1.921875 -2.8125 L 1.921875 -4.5 L 2.890625 -4.5 C 3.515625 -4.5 3.859375 -4.203125 3.859375 -3.65625 C 3.859375 -3.109375 3.515625 -2.8125 2.890625 -2.8125 Z M 1.921875 -2.8125 "/></g></g></g><g fill="#2e2e2e" fill-opacity="1"><g transform="translate(48.899059, 340.156146)"><g><path d="M 3.328125 0.109375 C 5.0625 0.109375 6.3125 -1.078125 6.3125 -2.796875 C 6.3125 -4.5 5.0625 -5.703125 3.328125 -5.703125 C 1.578125 -5.703125 0.34375 -4.5 0.34375 -2.796875 C 0.34375 -1.078125 1.578125 0.109375 3.328125 0.109375 Z M 1.640625 -2.796875 C 1.640625 -3.796875 2.328125 -4.5 3.328125 -4.5 C 4.3125 -4.5 5 -3.796875 5 -2.796875 C 5 -1.78125 4.3125 -1.09375 3.328125 -1.09375 C 2.328125 -1.09375 1.640625 -1.78125 1.640625 -2.796875 Z M 1.640625 -2.796875 "/></g></g></g><g fill="#2e2e2e" fill-opacity="1"><g transform="translate(55.784821, 340.156146)"><g><path d="M 2.625 0.109375 C 3.9375 0.109375 4.765625 -0.515625 4.765625 -1.578125 C 4.765625 -2.453125 4.171875 -2.984375 2.78125 -3.3125 C 1.9375 -3.515625 1.640625 -3.734375 1.640625 -4.078125 C 1.640625 -4.4375 1.96875 -4.65625 2.5 -4.65625 C 3.078125 -4.65625 3.4375 -4.359375 3.4375 -3.859375 L 4.65625 -3.859375 C 4.65625 -4.984375 3.8125 -5.703125 2.484375 -5.703125 C 1.203125 -5.703125 0.40625 -5.0625 0.40625 -4.046875 C 0.40625 -3.140625 1.015625 -2.59375 2.328125 -2.3125 C 3.109375 -2.140625 3.46875 -1.921875 3.46875 -1.53125 C 3.46875 -1.15625 3.140625 -0.9375 2.609375 -0.9375 C 2 -0.9375 1.59375 -1.25 1.59375 -1.78125 L 0.34375 -1.78125 C 0.34375 -0.625 1.21875 0.109375 2.625 0.109375 Z M 2.625 0.109375 "/></g></g></g><g fill="#2e2e2e" fill-opacity="1"><g transform="translate(61.136861, 340.156146)"><g><path d="M 0.671875 0 L 1.9375 0 L 1.9375 -1.5625 L 2.859375 -1.5625 C 4.203125 -1.5625 5.078125 -2.34375 5.078125 -3.5625 C 5.078125 -4.796875 4.203125 -5.59375 2.859375 -5.59375 L 0.671875 -5.59375 Z M 1.9375 -2.65625 L 1.9375 -4.484375 L 2.75 -4.484375 C 3.421875 -4.484375 3.78125 -4.140625 3.78125 -3.5625 C 3.78125 -2.984375 3.421875 -2.65625 2.75 -2.65625 Z M 1.9375 -2.65625 "/></g></g></g><g fill="#2e2e2e" fill-opacity="1"><g transform="translate(66.680621, 340.156146)"><g><path d="M 0.671875 0 L 4.4375 0 L 4.4375 -1.078125 L 1.9375 -1.078125 L 1.9375 -2.296875 L 4.125 -2.296875 L 4.125 -3.359375 L 1.9375 -3.359375 L 1.9375 -4.515625 L 4.34375 -4.515625 L 4.34375 -5.59375 L 0.671875 -5.59375 Z M 0.671875 0 "/></g></g></g><g fill="#2e2e2e" fill-opacity="1"><g transform="translate(71.75308, 340.156146)"><g><path d="M 0.671875 0 L 1.9375 0 L 1.9375 -1.734375 L 2.78125 -1.734375 L 3.78125 0 L 5.25 0 L 4.09375 -1.9375 C 4.765625 -2.234375 5.15625 -2.84375 5.15625 -3.671875 C 5.15625 -4.859375 4.328125 -5.59375 3.0625 -5.59375 L 0.671875 -5.59375 Z M 1.921875 -2.8125 L 1.921875 -4.5 L 2.890625 -4.5 C 3.515625 -4.5 3.859375 -4.203125 3.859375 -3.65625 C 3.859375 -3.109375 3.515625 -2.8125 2.890625 -2.8125 Z M 1.921875 -2.8125 "/></g></g></g><g fill="#2e2e2e" fill-opacity="1"><g transform="translate(317.908248, 40.081695)"><g><path d="M 2.59375 0.109375 C 3.609375 0.109375 4.4375 -0.421875 4.796875 -1.296875 L 3.5625 -1.296875 C 3.375 -1.015625 3.015625 -0.859375 2.609375 -0.859375 C 2.0625 -0.859375 1.625 -1.171875 1.515625 -1.75 L 4.875 -1.75 C 4.953125 -3.28125 4.046875 -4.296875 2.609375 -4.296875 C 1.25 -4.296875 0.3125 -3.40625 0.3125 -2.09375 C 0.3125 -0.796875 1.234375 0.109375 2.59375 0.109375 Z M 1.53125 -2.515625 C 1.65625 -3.03125 2.078125 -3.34375 2.609375 -3.34375 C 3.171875 -3.34375 3.5625 -3.03125 3.703125 -2.515625 Z M 1.53125 -2.515625 "/></g></g></g><g fill="#2e2e2e" fill-opacity="1"><g transform="translate(323.324199, 40.081695)"><g><path d="M 2.21875 0.109375 C 3.359375 0.109375 4.046875 -0.390625 4.046875 -1.1875 C 4.046875 -1.875 3.53125 -2.3125 2.484375 -2.515625 C 1.765625 -2.65625 1.546875 -2.78125 1.546875 -3.03125 C 1.546875 -3.28125 1.765625 -3.421875 2.125 -3.421875 C 2.53125 -3.421875 2.78125 -3.234375 2.8125 -2.921875 L 3.96875 -2.921875 C 3.90625 -3.8125 3.25 -4.296875 2.140625 -4.296875 C 1.015625 -4.296875 0.375 -3.84375 0.375 -3.03125 C 0.375 -2.34375 0.859375 -1.921875 1.921875 -1.734375 C 2.578125 -1.625 2.84375 -1.453125 2.84375 -1.1875 C 2.84375 -0.9375 2.625 -0.796875 2.234375 -0.796875 C 1.78125 -0.796875 1.515625 -1 1.515625 -1.34375 L 0.3125 -1.34375 C 0.3125 -0.46875 1.0625 0.109375 2.21875 0.109375 Z M 2.21875 0.109375 "/></g></g></g><g fill="#2e2e2e" fill-opacity="1"><g transform="translate(327.925356, 40.081695)"><g><path d="M 2.625 0 L 3.390625 0 L 3.390625 -1.046875 L 2.890625 -1.046875 C 2.40625 -1.046875 2.1875 -1.28125 2.1875 -1.765625 L 2.1875 -3.203125 L 3.34375 -3.203125 L 3.34375 -4.1875 L 2.1875 -4.1875 L 2.1875 -5.28125 L 1.25 -5.28125 L 1.171875 -4.734375 C 1.109375 -4.296875 0.984375 -4.1875 0.53125 -4.1875 L 0.15625 -4.1875 L 0.15625 -3.203125 L 0.96875 -3.203125 L 0.96875 -1.59375 C 0.96875 -0.5625 1.5625 0 2.625 0 Z M 2.625 0 "/></g></g></g><g fill="#2e2e2e" fill-opacity="1"><g transform="translate(331.887463, 40.081695)"><g><path d="M 2.4375 0.109375 C 3.046875 0.109375 3.5625 -0.109375 3.9375 -0.484375 L 4.09375 0 L 4.984375 0 L 4.984375 -5.90625 L 3.78125 -5.90625 L 3.78125 -3.859375 C 3.421875 -4.140625 2.96875 -4.296875 2.4375 -4.296875 C 1.203125 -4.296875 0.3125 -3.390625 0.3125 -2.09375 C 0.3125 -0.796875 1.203125 0.109375 2.4375 0.109375 Z M 1.515625 -2.09375 C 1.515625 -2.78125 1.984375 -3.265625 2.671875 -3.265625 C 3.34375 -3.265625 3.8125 -2.78125 3.8125 -2.09375 C 3.8125 -1.40625 3.34375 -0.9375 2.671875 -0.9375 C 1.984375 -0.9375 1.515625 -1.40625 1.515625 -2.09375 Z M 1.515625 -2.09375 "/></g></g></g><g fill="#2e2e2e" fill-opacity="1"><g transform="translate(315.755213, 48.069769)"><g><path d="M 0.40625 0 L 4.59375 0 L 4.59375 -1.109375 L 2.40625 -1.109375 L 3.46875 -2.03125 C 4.21875 -2.65625 4.5 -3.28125 4.5 -3.90625 C 4.5 -4.984375 3.671875 -5.703125 2.484375 -5.703125 C 1.25 -5.703125 0.484375 -4.953125 0.453125 -3.71875 L 1.609375 -3.71875 C 1.640625 -4.28125 1.953125 -4.609375 2.453125 -4.609375 C 2.953125 -4.609375 3.28125 -4.296875 3.28125 -3.84375 C 3.28125 -3.5 3.09375 -3.203125 2.71875 -2.875 L 0.40625 -0.890625 Z M 0.40625 0 "/></g></g></g><g fill="#2e2e2e" fill-opacity="1"><g transform="translate(321.123231, 48.069769)"><g><path d="M 2.796875 0.109375 C 4.296875 0.109375 5.203125 -0.984375 5.203125 -2.796875 C 5.203125 -4.609375 4.296875 -5.703125 2.796875 -5.703125 C 1.296875 -5.703125 0.40625 -4.609375 0.40625 -2.796875 C 0.40625 -0.984375 1.296875 0.109375 2.796875 0.109375 Z M 1.625 -2.796875 C 1.625 -3.90625 2.046875 -4.5625 2.796875 -4.5625 C 3.546875 -4.5625 3.96875 -3.90625 3.96875 -2.796875 C 3.96875 -1.6875 3.546875 -1.015625 2.796875 -1.015625 C 2.046875 -1.015625 1.625 -1.6875 1.625 -2.796875 Z M 1.625 -2.796875 "/></g></g></g><g fill="#2e2e2e" fill-opacity="1"><g transform="translate(326.954566, 48.069769)"><g><path d="M 0.40625 0 L 4.59375 0 L 4.59375 -1.109375 L 2.40625 -1.109375 L 3.46875 -2.03125 C 4.21875 -2.65625 4.5 -3.28125 4.5 -3.90625 C 4.5 -4.984375 3.671875 -5.703125 2.484375 -5.703125 C 1.25 -5.703125 0.484375 -4.953125 0.453125 -3.71875 L 1.609375 -3.71875 C 1.640625 -4.28125 1.953125 -4.609375 2.453125 -4.609375 C 2.953125 -4.609375 3.28125 -4.296875 3.28125 -3.84375 C 3.28125 -3.5 3.09375 -3.203125 2.71875 -2.875 L 0.40625 -0.890625 Z M 0.40625 0 "/></g></g></g><g fill="#2e2e2e" fill-opacity="1"><g transform="translate(332.322584, 48.069769)"><g><path d="M 0.21875 -1.015625 L 3.015625 -1.015625 L 3.015625 0 L 4.25 0 L 4.25 -1.015625 L 4.953125 -1.015625 L 4.953125 -2.125 L 4.25 -2.125 L 4.25 -3.65625 L 3.265625 -3.65625 L 3.078125 -2.09375 L 1.6875 -2.09375 L 3.40625 -5.59375 L 2.015625 -5.59375 L 0.21875 -1.90625 Z M 0.21875 -1.015625 "/></g></g></g></svg>