<svg xmlns="http://www.w3.org/2000/svg" xmlns:xlink="http://www.w3.org/1999/xlink" width="500" zoomAndPan="magnify" viewBox="0 0 375 374.999991" height="500" preserveAspectRatio="xMidYMid meet" version="1.0"><defs><g/><clipPath id="5a05e21650"><path d="M 62.070312 241.359375 L 172.21875 241.359375 L 172.21875 253.609375 L 62.070312 253.609375 Z M 62.070312 241.359375 " clip-rule="nonzero"/></clipPath><clipPath id="9dfbaf31e1"><path d="M 300.589844 127.996094 L 358.964844 127.996094 L 358.964844 140.246094 L 300.589844 140.246094 Z M 300.589844 127.996094 " clip-rule="nonzero"/></clipPath><clipPath id="d8b2827a6e"><path d="M 189.246094 162.625 L 358.964844 162.625 L 358.964844 332.34375 L 189.246094 332.34375 Z M 189.246094 162.625 " clip-rule="nonzero"/></clipPath><clipPath id="3affb16fb3"><path d="M 274.105469 162.625 C 227.238281 162.625 189.246094 200.617188 189.246094 247.484375 C 189.246094 294.351562 227.238281 332.34375 274.105469 332.34375 C 320.972656 332.34375 358.964844 294.351562 358.964844 247.484375 C 358.964844 200.617188 320.972656 162.625 274.105469 162.625 Z M 274.105469 162.625 " clip-rule="nonzero"/></clipPath></defs><g clip-path="url(#5a05e21650)"><path fill="#93ff00" d="M 62.070312 241.359375 L 172.214844 241.359375 L 172.214844 253.609375 L 62.070312 253.609375 Z M 62.070312 241.359375 " fill-opacity="1" fill-rule="nonzero"/></g><g clip-path="url(#9dfbaf31e1)"><path fill="#93ff00" d="M 300.589844 127.996094 L 358.964844 127.996094 L 358.964844 140.246094 L 300.589844 140.246094 Z M 300.589844 127.996094 " fill-opacity="1" fill-rule="nonzero"/></g><g fill="#fffcf7" fill-opacity="1"><g transform="translate(-0.830558, 149.794347)"><g><path d="M 4 0 L 11.5625 0 L 11.5625 -11.46875 L 23.640625 -11.46875 L 23.640625 -18.125 L 11.5625 -18.125 L 11.5625 -26.4375 L 24.875 -26.4375 L 24.875 -33.296875 L 4 -33.296875 Z M 4 0 "/></g></g></g><g fill="#fffcf7" fill-opacity="1"><g transform="translate(35.981697, 149.794347)"><g><path d="M 19.78125 0.671875 C 30.203125 0.671875 37.578125 -6.46875 37.578125 -16.640625 C 37.578125 -26.828125 30.203125 -33.953125 19.78125 -33.953125 C 9.375 -33.953125 2.046875 -26.828125 2.046875 -16.640625 C 2.046875 -6.46875 9.375 0.671875 19.78125 0.671875 Z M 9.75 -16.640625 C 9.75 -22.640625 13.890625 -26.78125 19.78125 -26.78125 C 25.734375 -26.78125 29.828125 -22.640625 29.828125 -16.640625 C 29.828125 -10.65625 25.734375 -6.515625 19.78125 -6.515625 C 13.890625 -6.515625 9.75 -10.65625 9.75 -16.640625 Z M 9.75 -16.640625 "/></g></g></g><g fill="#fffcf7" fill-opacity="1"><g transform="translate(85.445185, 149.794347)"><g><path d="M 17.59375 0.671875 C 26.25 0.671875 31.53125 -4.75 31.53125 -13.703125 L 31.53125 -33.296875 L 23.96875 -33.296875 L 23.96875 -14.21875 C 23.96875 -9.125 21.828125 -6.515625 17.59375 -6.515625 C 13.359375 -6.515625 11.21875 -9.125 11.21875 -14.21875 L 11.21875 -33.296875 L 3.65625 -33.296875 L 3.65625 -13.703125 C 3.65625 -4.75 8.9375 0.671875 17.59375 0.671875 Z M 17.59375 0.671875 "/></g></g></g><g fill="#fffcf7" fill-opacity="1"><g transform="translate(130.485495, 149.794347)"><g><path d="M 4 0 L 11.515625 0 L 11.515625 -20.40625 L 26.203125 0 L 32.625 0 L 32.625 -33.296875 L 25.109375 -33.296875 L 25.109375 -13.03125 L 10.421875 -33.296875 L 4 -33.296875 Z M 4 0 "/></g></g></g><g fill="#fffcf7" fill-opacity="1"><g transform="translate(176.952631, 149.794347)"><g><path d="M 4 0 L 17.171875 0 C 27.6875 0 34.71875 -6.703125 34.71875 -16.640625 C 34.71875 -26.546875 27.6875 -33.296875 17.171875 -33.296875 L 4 -33.296875 Z M 11.5625 -6.9375 L 11.5625 -26.34375 L 16.9375 -26.34375 C 22.921875 -26.34375 26.96875 -22.5 26.96875 -16.640625 C 26.96875 -10.796875 22.921875 -6.9375 17.03125 -6.9375 Z M 11.5625 -6.9375 "/></g></g></g><g fill="#fffcf7" fill-opacity="1"><g transform="translate(223.514886, 149.794347)"><g><path d="M 4 0 L 26.390625 0 L 26.390625 -6.421875 L 11.515625 -6.421875 L 11.515625 -13.703125 L 24.59375 -13.703125 L 24.59375 -20.03125 L 11.515625 -20.03125 L 11.515625 -26.921875 L 25.875 -26.921875 L 25.875 -33.296875 L 4 -33.296875 Z M 4 0 "/></g></g></g><g fill="#fffcf7" fill-opacity="1"><g transform="translate(262.182011, 149.794347)"><g><path d="M 4 0 L 11.5625 0 L 11.5625 -10.375 L 16.546875 -10.375 L 22.5 0 L 31.25 0 L 24.359375 -11.5625 C 28.34375 -13.3125 30.671875 -16.9375 30.671875 -21.828125 C 30.671875 -28.921875 25.828125 -33.296875 18.21875 -33.296875 L 4 -33.296875 Z M 11.46875 -16.734375 L 11.46875 -26.828125 L 17.21875 -26.828125 C 20.921875 -26.828125 23.015625 -25.015625 23.015625 -21.78125 C 23.015625 -18.546875 20.921875 -16.734375 17.21875 -16.734375 Z M 11.46875 -16.734375 "/></g></g></g><g clip-path="url(#d8b2827a6e)"><g clip-path="url(#3affb16fb3)"><path fill="#2e2e2e" d="M 189.246094 162.625 L 358.964844 162.625 L 358.964844 332.34375 L 189.246094 332.34375 Z M 189.246094 162.625 " fill-opacity="1" fill-rule="nonzero"/></g></g><g fill="#ededed" fill-opacity="1"><g transform="translate(192.861767, 286.89874)"><g><path d="M 39.828125 -32.765625 L 61.375 -65.34375 L 48.0625 -65.34375 L 33.171875 -42.796875 L 18.375 -65.34375 L 5.0625 -65.34375 L 26.515625 -32.765625 L 4.96875 0 L 18.171875 0 L 33.171875 -22.640625 L 48.171875 0 L 61.375 0 Z M 39.828125 -32.765625 "/></g></g></g><g fill="#ededed" fill-opacity="1"><g transform="translate(239.33689, 286.89874)"><g><path d="M 17.578125 -65.34375 L 4.265625 -65.34375 L 31.484375 -21.84375 L 31.484375 0 L 42.609375 0 L 42.609375 -21.84375 L 70.109375 -65.34375 L 56.703125 -65.34375 L 37.046875 -33.671875 Z M 17.578125 -65.34375 "/></g></g></g><g fill="#ededed" fill-opacity="1"><g transform="translate(293.856153, 286.89874)"><g><path d="M 35.65625 -54.125 L 7.453125 0 L 53.921875 0 L 53.921875 -11.125 L 25.828125 -11.125 L 54.03125 -65.34375 L 7.546875 -65.34375 L 7.546875 -54.125 Z M 35.65625 -54.125 "/></g></g></g></svg>